<svg width="100" height="100" viewBox="0 0 100 100" fill="none" xmlns="http://www.w3.org/2000/svg">
<g id="Frame">
<path id="Vector" d="M43.1412 11.4206C44.5723 11.2597 45.9903 11.8179 46.9277 12.9112L55.7982 23.2574C65.9852 25.7748 71.8875 33.4454 75.1519 43.0213C78.5157 52.8886 79.3478 65.4152 79.3478 78.2609C79.3478 80.6621 77.4012 82.6087 75 82.6087H34.4618C32.1537 82.6087 30.2477 80.805 30.1206 78.5002C30.0072 76.4436 30.4804 72.8749 31.9224 69.2298L31.9489 69.163C27.854 71.3611 23.3096 70.8346 19.936 68.4326C15.8361 65.5136 13.5565 59.7993 16.161 54.1563C18.0392 50.087 20.0634 47.9322 21.5947 46.3024C23.0251 44.7801 23.6212 44.1105 24.0428 42.4238C26.5997 32.1966 31.8597 26.3051 37.5086 23.6164C37.4268 22.4513 37.4932 21.3288 37.6362 20.3097C37.9919 17.7729 38.8775 15.4287 39.7802 13.7149C40.4514 12.4407 41.71 11.5815 43.1412 11.4206Z" fill="#F4F7FA"/>
<path id="Vector_2" fill-rule="evenodd" clip-rule="evenodd" d="M53.4464 27.194L43.627 15.7412C42.2056 18.4396 40.8276 23.2023 42.8088 26.6403C41.8472 26.726 40.9282 26.8886 40.2174 27.1739C35.6825 28.9938 30.7065 33.6957 28.2609 43.4783C27.5527 46.3109 26.2782 47.6674 24.7633 49.2796C23.3344 50.8004 21.6916 52.5487 20.1087 55.9783C16.8478 63.0435 25.6482 70.1087 32.0652 63.6916C35.6729 60.0839 38.8265 58.5945 41.4741 57.3441C45.2848 55.5443 48.0475 54.2396 49.6079 47.8261C50.3504 50.8177 50.0535 57.8779 42.9259 62.1859C35.7983 66.4938 34.3134 75.5684 34.4619 78.2608H75C75 52.6991 71.6158 30.6139 53.4464 27.194Z" fill="#34364C"/>
<path id="Vector_3" d="M41.3043 43.4783C43.1053 43.4783 44.5652 42.0183 44.5652 40.2174C44.5652 38.4165 43.1053 36.9565 41.3043 36.9565C39.5034 36.9565 38.0435 38.4165 38.0435 40.2174C38.0435 42.0183 39.5034 43.4783 41.3043 43.4783Z" fill="#F4F7FA"/>
</g>
</svg>
