<svg width="100" height="100" viewBox="0 0 100 100" fill="none" xmlns="http://www.w3.org/2000/svg">
<g id="Frame">
<path id="Vector" fill-rule="evenodd" clip-rule="evenodd" d="M43.4803 15.0816C43.5537 12.7344 45.4777 10.8696 47.8261 10.8696H54.3478C56.6962 10.8696 58.6202 12.7344 58.6935 15.0816L58.7317 16.3044H60.8695C63.2707 16.3044 65.2174 18.2509 65.2174 20.6522V23.2892C69.9567 22.2167 75.072 22.933 79.4138 26.5512C88.4336 34.0677 87.6037 49.824 76.8991 58.4423C74.3158 60.5221 72.2864 62.2462 70.8889 64.0228C70.5701 64.4282 70.2969 64.8203 70.067 65.2041L74.4735 65.8001C76.6299 66.0917 78.2386 67.9327 78.2386 70.1087V78.2609C78.2386 80.6621 76.2919 82.6087 73.8907 82.6087H28.2831C25.8819 82.6087 23.9353 80.6621 23.9353 78.2609V70.1087C23.9353 67.9327 25.544 66.0917 27.7004 65.8001L32.1068 65.2041C31.8769 64.8203 31.6038 64.4282 31.285 64.0228C29.8875 62.2462 27.858 60.5221 25.2748 58.4423C14.5702 49.824 13.7403 34.0677 22.7601 26.5512C27.1018 22.933 32.2172 22.2167 36.9565 23.2892V20.6522C36.9565 18.2509 38.9031 16.3044 41.3043 16.3044H43.4422L43.4803 15.0816Z" fill="#34364C"/>
<path id="Vector_2" fill-rule="evenodd" clip-rule="evenodd" d="M47.8261 15.2174H54.3478L54.5176 20.6522H60.8696V27.1739H54.7214L55.0201 34.5576C55.1394 34.4172 55.2621 34.2796 55.3885 34.1451C61.3267 27.8338 70.1312 24.4752 76.6304 29.8913C83.1522 35.3261 83.1522 47.8261 74.1725 55.0557C69.0859 59.1509 64.5297 63.0988 64.7542 68.8731L73.8908 70.1087V78.2609H28.2832V70.1087L37.4197 68.8731C37.6442 63.0988 33.088 59.1509 28.0014 55.0557C19.0217 47.8261 19.0217 35.3261 25.5435 29.8913C32.0427 24.4752 40.8472 27.8338 46.7854 34.1451C46.9119 34.2796 47.0346 34.4172 47.1538 34.5576L47.4524 27.1739H41.3044V20.6522H47.6562L47.8261 15.2174ZM41.6826 40.1882C45.6682 46.7164 46.1957 54.3478 46.1957 57.6665C44.1979 57.6701 36.6672 54.3571 32.68 48.9181C29.8096 45.0024 29.0611 39.193 31.5217 36.9375C33.9824 34.6821 39.1916 36.1081 41.6826 40.1882ZM60.4913 40.1882C56.5058 46.7164 55.9783 54.3478 55.9783 57.6665C57.976 57.6701 65.5067 54.3571 69.4939 48.9181C72.3644 45.0024 73.1128 39.193 70.6522 36.9375C68.1915 34.6821 62.9822 36.1081 60.4913 40.1882Z" fill="#F4F7FA"/>
</g>
</svg>
