<svg width="100" height="100" viewBox="0 0 100 100" fill="none" xmlns="http://www.w3.org/2000/svg">
<g id="Frame">
<path id="Vector" d="M35.9865 55.5728C35.4678 56.281 34.8487 57.0184 34.1273 57.7769C31.581 60.4541 28.4583 62.6568 26.4429 63.8085L26.1037 64.0023C24.7491 64.7763 23.9131 66.2169 23.9131 67.7772V78.2609C23.9131 80.6621 25.8597 82.6087 28.2609 82.6087H70.6522C73.0534 82.6087 75 80.6621 75 78.2609V67.7772C75 66.2169 74.1641 64.7764 72.8094 64.0023L72.4704 63.8085C70.4549 62.6568 67.3321 60.4541 64.7858 57.7769C64.0644 57.0184 63.4454 56.281 62.9267 55.5728C64.8348 55.1131 66.2527 53.395 66.2527 51.3458V44.2684C66.2527 42.8556 65.5662 41.531 64.4121 40.7163L62.5655 39.4128C63.631 37.3425 64.234 34.9933 64.234 32.5052C64.234 24.158 57.4673 17.3913 49.1201 17.3913C40.773 17.3913 34.0062 24.158 34.0062 32.5052C34.0062 35.1331 34.6787 37.6056 35.8582 39.7583L34.501 40.7163C33.3469 41.531 32.6605 42.8556 32.6605 44.2684V51.3458C32.6605 53.395 34.0783 55.1131 35.9865 55.5728Z" fill="#F4F7FA"/>
<path id="Vector_2" d="M59.8861 32.5052C59.8861 35.6276 58.5568 38.4397 56.4334 40.4061L61.9048 44.2684V51.3458H56.5485C56.8067 54.6263 58.9116 57.9096 61.6353 60.7734C64.5259 63.8125 68.0036 66.2637 70.3131 67.5835L70.6522 67.7772V78.2609H28.2609V67.7772L28.5999 67.5835C30.9095 66.2637 34.3872 63.8125 37.2777 60.7734C40.0014 57.9096 42.1063 54.6263 42.3646 51.3458H37.0083V44.2684L42.104 40.6713C39.808 38.697 38.354 35.7709 38.354 32.5052C38.354 26.5592 43.1741 21.7391 49.1201 21.7391C55.066 21.7391 59.8861 26.5592 59.8861 32.5052Z" fill="#34364C"/>
</g>
</svg>
