<svg width="100" height="100" viewBox="0 0 100 100" fill="none" xmlns="http://www.w3.org/2000/svg">
<g id="Frame">
<path id="Vector" d="M39.4717 29.2216C39.0349 28.0214 38.796 26.7259 38.796 25.3763C38.796 19.1653 43.8309 14.1304 50.0418 14.1304C56.2527 14.1304 61.2876 19.1653 61.2876 25.3763C61.2876 27.1955 60.8528 28.9201 60.0821 30.4451C61.1912 30.5218 62.2689 31.0215 63.0547 31.9196C67.3238 36.7986 71.0598 43.7552 71.0598 51.8186C71.0598 57.5833 69.0751 61.855 66.3934 64.9329L71.4868 65.8262C73.5666 66.191 75.0836 67.9972 75.0836 70.1087V78.2609C75.0836 79.414 74.6255 80.5199 73.8101 81.3352C72.9948 82.1507 71.8889 82.6087 70.7358 82.6087H29.3478C26.9466 82.6087 25 80.6621 25 78.2609V70.1087C25 67.9997 26.5136 66.1948 28.5904 65.8274L33.1851 65.0146C30.4667 61.9309 28.449 57.6352 28.449 51.8186C28.449 45.5275 30.887 40.0488 33.7463 35.8501C35.5436 33.211 37.5784 30.9703 39.4717 29.2216Z" fill="#F4F7FA"/>
<path id="Vector_2" d="M52.1739 51.2437H47.826C47.826 43.2602 50.2475 35.2901 55.6044 29.4562C56.4439 28.3136 56.9397 26.9028 56.9397 25.3763C56.9397 21.5666 53.8515 18.4783 50.0418 18.4783C46.2321 18.4783 43.1438 21.5666 43.1438 25.3763C43.1438 27.2559 43.8956 28.9599 45.1147 30.204C40.8058 33.2759 32.7968 41.5097 32.7968 51.8186C32.7968 62.2221 40.9534 66.4339 45.2325 67.2986L29.3478 70.1087V78.2609H70.7357V70.1087L54.4744 67.2567C58.8018 66.3042 66.7119 62.0636 66.7119 51.8186C66.7119 45.1103 63.5869 39.1304 59.7826 34.7826C55.6044 38.0435 52.1739 45.6522 52.1739 51.2437Z" fill="#34364C"/>
</g>
</svg>
