<svg width="100" height="100" viewBox="0 0 100 100" fill="none" xmlns="http://www.w3.org/2000/svg">
<g id="Frame">
<path id="Vector" d="M39.1305 16.3043C39.9224 16.3043 40.6649 16.516 41.3044 16.886C41.9438 16.516 42.6863 16.3043 43.4783 16.3043H55.4348C56.2268 16.3043 56.9693 16.516 57.6087 16.886C58.2483 16.516 58.9907 16.3043 59.7827 16.3043H70.6522C73.0534 16.3043 75 18.2509 75 20.6521V30.4348C75 31.8032 74.3557 33.0919 73.2609 33.913L66.5521 38.9446L68.4517 56.0416C68.9546 60.568 71.0615 62.8644 74.1305 66.9565C74.6949 67.7091 75 68.6244 75 69.5652V78.2608C75 80.662 73.0534 82.6087 70.6522 82.6087H28.2609C25.8597 82.6087 23.9131 80.662 23.9131 78.2608V69.5652C23.9131 68.6244 24.2182 67.7091 24.7827 66.9565C27.8517 62.8644 29.9585 60.568 30.4615 56.0416L32.3611 38.9446L25.6522 33.913C24.5574 33.0919 23.9131 31.8032 23.9131 30.4348V20.6521C23.9131 18.2509 25.8597 16.3043 28.2609 16.3043H39.1305Z" fill="#34364C"/>
<path id="Vector_2" d="M28.2609 20.6522H39.1304V27.1739H43.4783V20.6522H55.4348V27.1739H59.7826V20.6522H70.6522V30.4348L61.9565 36.9565L64.1304 56.5217H34.7826L36.9565 36.9565L28.2609 30.4348V20.6522Z" fill="#F4F7FA"/>
<path id="Vector_3" d="M34.7826 60.8696H64.1304L70.6522 69.5652V78.2609H28.2609V69.5652L34.7826 60.8696Z" fill="#F4F7FA"/>
</g>
</svg>
