<svg width="100" height="100" viewBox="0 0 100 100" fill="none" xmlns="http://www.w3.org/2000/svg">
<g id="Frame">
<path id="Vector" d="M30.4348 21.7392C30.4348 22.8123 30.6074 23.8449 30.9264 24.8107L28.7803 25.8174C27.0011 23.9732 24.5042 22.8261 21.7392 22.8261C16.3364 22.8261 11.9565 27.2059 11.9565 32.6087C11.9565 37.4248 15.4368 41.4281 20.0195 42.2407L25.1739 59.9131C25.2815 60.282 25.4375 60.635 25.638 60.9628L28.6087 65.8242L28.5905 65.8274C26.5136 66.1948 25 67.9997 25 70.1087V78.2609C25 80.6621 26.9467 82.6087 29.3478 82.6087H70.7358C71.8889 82.6087 72.9948 82.1507 73.8101 81.3352C74.6256 80.5199 75.0836 79.414 75.0836 78.2609V70.1087C75.0836 67.9972 73.5666 66.191 71.4869 65.8262L71.3995 65.8109L74.3621 60.9628C74.5625 60.635 74.7185 60.282 74.8261 59.9131L79.9806 42.2407C84.5633 41.4281 88.0435 37.4248 88.0435 32.6087C88.0435 27.2059 83.6637 22.8261 78.2609 22.8261C75.4924 22.8261 72.9926 23.9761 71.213 25.8244L69.0707 24.8195C69.3915 23.8512 69.5652 22.8156 69.5652 21.7392C69.5652 16.3364 65.1855 11.9565 59.7826 11.9565C54.3798 11.9565 50 16.3364 50 21.7392C50 16.3364 45.6202 11.9565 40.2174 11.9565C34.8146 11.9565 30.4348 16.3364 30.4348 21.7392Z" fill="#34364C"/>
<path id="Vector_2" d="M42.1682 26.8132C44.2061 26.0293 45.6521 24.053 45.6521 21.7391C45.6521 18.7376 43.2189 16.3043 40.2174 16.3043C37.2158 16.3043 34.7826 18.7376 34.7826 21.7391C34.7826 24.5129 36.8605 26.8013 39.5446 27.1327L37.121 46.7391L25.4371 36.5914C26.5055 35.5989 27.1739 34.1818 27.1739 32.6087C27.1739 29.6071 24.7406 27.1739 21.7391 27.1739C18.7376 27.1739 16.3043 29.6071 16.3043 32.6087C16.3043 35.6102 18.7376 38.0435 21.7391 38.0435C22.2675 38.0435 22.7782 37.968 23.2613 37.8275L29.3478 58.6956L35.6419 68.9952L29.3478 70.1087V78.2608H70.7357V70.1087L64.3607 68.9906L70.6521 58.6956L76.7387 37.8275C77.2217 37.968 77.7325 38.0435 78.2608 38.0435C81.2624 38.0435 83.6956 35.6102 83.6956 32.6087C83.6956 29.6071 81.2624 27.1739 78.2608 27.1739C75.2593 27.1739 72.8261 29.6071 72.8261 32.6087C72.8261 34.1818 73.4944 35.5989 74.5628 36.5914L62.879 46.7391L60.4553 27.1327C63.1394 26.8013 65.2174 24.5129 65.2174 21.7391C65.2174 18.7376 62.7841 16.3043 59.7826 16.3043C56.7811 16.3043 54.3478 18.7376 54.3478 21.7391C54.3478 24.053 55.7939 26.0293 57.8317 26.8132L50 44.5652L42.1682 26.8132Z" fill="#F4F7FA"/>
</g>
</svg>
