<svg xmlns="http://www.w3.org/2000/svg" width="120" height="48" viewBox="0 0 582 220" alt="Alien"
    version="1.1">
    <path d="" stroke="none" fill="#000000" fill-rule="evenodd" />
    <path
        d="M 177 2.956 C 166.085 4.893, 163 5.784, 163 6.998 C 163 7.473, 164.012 8.087, 165.250 8.363 C 167.509 8.868, 162.128 8.595, 145.621 7.368 C 137.884 6.793, 137.034 6.552, 139.007 5.496 C 142.309 3.729, 140.080 2.970, 134.965 4.119 C 118.312 7.861, 95.945 8.956, 78.408 6.888 C 71.117 6.028, 68.644 6.051, 67.512 6.990 C 66.465 7.859, 61.566 8.119, 50.274 7.905 C 41.598 7.740, 28.857 7.968, 21.961 8.411 L 9.422 9.216 8.289 13.986 C 7.551 17.091, 7.469 20.108, 8.054 22.628 C 9.158 27.387, 9.166 41.760, 8.069 48.450 C 7.432 52.330, 7.582 53.725, 8.762 54.905 C 10.021 56.164, 10.131 58.058, 9.433 66.456 C 8.109 82.375, 8.647 95.197, 11.420 113.843 C 12.839 123.381, 14 133.187, 14 135.633 C 14 138.285, 14.892 141.779, 16.211 144.290 C 18.152 147.986, 18.469 150.393, 18.808 164 C 19.024 172.702, 18.752 181.035, 18.187 183 L 17.180 186.500 17.090 183.237 C 17.041 181.443, 16.100 176.727, 15 172.757 C 13.900 168.788, 13 164.300, 13 162.784 C 13 161.269, 12.563 158.110, 12.029 155.764 C 11.495 153.419, 10.612 149.475, 10.066 147 C 9.242 143.265, 9.171 143.945, 9.648 151 C 9.964 155.675, 10.510 171.500, 10.861 186.167 C 11.213 200.834, 11.791 213.125, 12.147 213.481 C 12.502 213.836, 16.890 213.741, 21.897 213.270 C 26.904 212.799, 31 212.771, 31 213.207 C 31 213.643, 45.962 214, 64.250 214 C 89.653 214, 99.350 213.646, 105.338 212.500 C 109.948 211.618, 118.861 211, 126.981 211 C 138.637 211, 140.880 211.246, 141.392 212.579 C 141.934 213.993, 146.792 214.124, 187.749 213.829 C 222.685 213.578, 234.032 213.196, 235.750 212.215 C 237.337 211.308, 238 211.263, 238 212.063 C 238 214.934, 247.289 206.325, 252.844 198.306 C 254.936 195.286, 254.991 194.742, 253.847 188.306 C 253.182 184.563, 252.566 174.525, 252.478 166 C 252.365 155.001, 251.648 146.579, 250.010 137 C 248.589 128.696, 247.662 119.005, 247.600 111.822 C 247.505 100.767, 247.407 100.228, 245.750 101.727 C 243.543 103.723, 243.518 103.024, 245.434 93 C 247.528 82.049, 247.012 34.279, 244.694 24.500 C 243.781 20.650, 243.027 14.084, 243.017 9.908 L 243 2.316 224.250 1.661 C 197.959 0.742, 187.927 1.017, 177 2.956 M 110.113 12.479 C 89.973 17.054, 74.309 25.701, 60.880 39.657 C 43.991 57.208, 35.071 79.066, 35.022 103.020 C 34.995 115.758, 37.111 124.278, 43.416 136.834 C 57.274 164.426, 91.798 196.448, 118.631 206.598 C 127.244 209.856, 132.467 209.425, 142.585 204.620 C 170.572 191.329, 202.364 159.973, 214.512 133.680 C 219.992 121.820, 221.432 115.121, 221.322 102 C 220.981 61.320, 193.467 25.895, 153 14.036 C 143.150 11.149, 119.714 10.299, 110.113 12.479 M 321.766 66.642 C 315.209 68.913, 309.632 74.012, 306.311 80.776 C 303.808 85.872, 303.461 87.795, 303.143 98.314 C 302.509 119.266, 304.616 126, 311.805 126 C 319.334 126, 323 122.349, 323 114.851 L 323 112 330.500 112 L 338 112 338 116.389 C 338 119.087, 338.674 121.604, 339.750 122.920 C 341.946 125.607, 348.008 126.653, 351.940 125.025 C 356.454 123.155, 357.500 118.825, 357.500 102 C 357.500 86.409, 356.442 82.201, 350.590 74.529 C 344.810 66.951, 331.439 63.292, 321.766 66.642 M 373.357 65.992 C 368.293 68.035, 368 69.659, 368 95.667 C 368 119.830, 368.006 119.895, 370.413 122.694 L 372.827 125.500 390.994 125.500 C 411.440 125.500, 412 125.299, 412 117.964 C 412 112.006, 410.003 111, 398.171 111 L 388 111 387.994 92.750 C 387.988 71.302, 387.279 67.641, 382.829 66.090 C 379.175 64.817, 376.342 64.787, 373.357 65.992 M 427.206 65.994 C 422.750 67.886, 421.995 72.167, 422.056 95.218 C 422.118 118.281, 422.836 122.572, 427 124.763 C 430.368 126.535, 436.798 125.646, 439.397 123.049 C 441.406 121.041, 441.513 119.823, 441.797 95.643 C 442.071 72.320, 441.950 70.160, 440.258 68.070 C 438.175 65.498, 431.045 64.364, 427.206 65.994 M 459.206 66.048 C 454.810 67.812, 453.998 72.227, 454.024 94.218 C 454.037 105.373, 454.454 116.251, 454.950 118.391 C 456.552 125.296, 457.030 125.462, 476.260 125.819 C 500.046 126.259, 503 125.457, 503 118.551 C 503 113.307, 501.185 112.559, 487.102 112 L 474.500 111.500 474.500 107 L 474.500 102.500 484.602 102 C 495.706 101.450, 498 100.423, 498 96 C 498 91.577, 495.706 90.550, 484.602 90 L 474.500 89.500 474.500 84.500 L 474.500 79.500 486.957 79.218 C 500.899 78.901, 503.012 78.029, 502.985 72.595 C 502.965 68.647, 502.126 67.379, 498.665 66.063 C 495.243 64.762, 462.441 64.749, 459.206 66.048 M 519.357 65.940 C 514.253 68.122, 514 69.574, 514 96.723 C 514 120.667, 514.105 122.105, 516 124 C 518.393 126.393, 522.715 126.588, 525.777 124.443 C 527.865 122.981, 528 122.155, 528 110.832 L 528 98.777 538.988 109.139 C 556.884 126.013, 561.593 128.467, 567.365 123.927 L 570 121.855 570 94.984 C 570 68.350, 569.980 68.100, 567.777 66.557 C 566.555 65.701, 564.630 65, 563.500 65 C 562.370 65, 560.445 65.701, 559.223 66.557 C 557.137 68.018, 557 68.848, 557 80.057 C 557 86.626, 556.669 92, 556.263 92 C 555.858 92, 549.632 86.117, 542.427 78.927 C 530.785 67.309, 528.891 65.807, 525.413 65.439 C 523.261 65.211, 520.536 65.437, 519.357 65.940 M 64.750 73.706 C 65.987 73.944, 68.013 73.944, 69.250 73.706 C 70.487 73.467, 69.475 73.272, 67 73.272 C 64.525 73.272, 63.513 73.467, 64.750 73.706 M 186.750 73.706 C 187.988 73.944, 190.012 73.944, 191.250 73.706 C 192.488 73.467, 191.475 73.272, 189 73.272 C 186.525 73.272, 185.512 73.467, 186.750 73.706 M 327.315 80.007 C 323.978 81.352, 323 84.168, 323 92.434 L 323 100 330.500 100 L 338 100 338 92.950 C 338 84.987, 336.273 80.574, 332.790 79.641 C 330.036 78.903, 330.059 78.902, 327.315 80.007 M 152.469 93.250 L 146.500 99.500 152.750 93.531 C 156.188 90.249, 159 87.436, 159 87.281 C 159 86.542, 158.013 87.444, 152.469 93.250 M 187.437 119.250 L 184.500 122.500 187.750 119.563 C 189.537 117.948, 191 116.485, 191 116.313 C 191 115.540, 190.175 116.221, 187.437 119.250 M 72.500 124 C 75.209 126.750, 77.650 129, 77.925 129 C 78.200 129, 76.209 126.750, 73.500 124 C 70.791 121.250, 68.350 119, 68.075 119 C 67.800 119, 69.791 121.250, 72.500 124 M 122.232 129 C 122.232 130.925, 122.438 131.713, 122.689 130.750 C 122.941 129.787, 122.941 128.213, 122.689 127.250 C 122.438 126.287, 122.232 127.075, 122.232 129 M 106.750 142.706 C 107.987 142.944, 110.013 142.944, 111.250 142.706 C 112.487 142.467, 111.475 142.272, 109 142.272 C 106.525 142.272, 105.513 142.467, 106.750 142.706 M 145.750 142.706 C 146.988 142.944, 149.012 142.944, 150.250 142.706 C 151.488 142.467, 150.475 142.272, 148 142.272 C 145.525 142.272, 144.512 142.467, 145.750 142.706 M 107.567 166.926 C 106.609 167.985, 106.037 169.672, 106.296 170.676 C 106.684 172.174, 106.789 172.109, 106.884 170.307 C 106.948 169.100, 108 167.413, 109.223 166.557 C 110.445 165.701, 110.965 165, 110.377 165 C 109.790 165, 108.526 165.867, 107.567 166.926 M 141.612 165.819 C 141.333 166.270, 142.432 166.443, 144.053 166.206 C 145.674 165.968, 147 165.599, 147 165.387 C 147 164.625, 142.107 165.017, 141.612 165.819 M 125.750 170.706 C 126.987 170.944, 129.012 170.944, 130.250 170.706 C 131.488 170.467, 130.475 170.272, 128 170.272 C 125.525 170.272, 124.513 170.467, 125.750 170.706"
        stroke="none" fill="#344542" fill-rule="evenodd" />
    <path
        d="M 222.250 1.735 C 224.863 1.941, 229.137 1.941, 231.750 1.735 C 234.363 1.529, 232.225 1.360, 227 1.360 C 221.775 1.360, 219.637 1.529, 222.250 1.735 M 243.355 10.500 C 243.352 15.450, 243.521 17.601, 243.731 15.280 C 243.940 12.959, 243.943 8.909, 243.736 6.280 C 243.530 3.651, 243.358 5.550, 243.355 10.500 M 64.863 5.894 C 66.014 6.623, 66.014 6.842, 64.863 7.300 C 64.112 7.599, 64.010 7.878, 64.636 7.921 C 65.260 7.964, 67.060 7.328, 68.636 6.506 L 71.500 5.012 67.500 5.021 C 64.866 5.027, 63.966 5.326, 64.863 5.894 M 137.737 6.184 C 137.056 6.616, 139.200 6.941, 142.500 6.906 C 148.860 6.838, 148.954 6.388, 142.737 5.772 C 140.667 5.566, 138.417 5.752, 137.737 6.184 M 29.762 7.707 C 31.006 7.946, 32.806 7.937, 33.762 7.687 C 34.718 7.437, 33.700 7.241, 31.500 7.252 C 29.300 7.263, 28.518 7.468, 29.762 7.707 M 43.728 7.722 C 45.503 7.943, 48.653 7.946, 50.728 7.730 C 52.802 7.513, 51.350 7.333, 47.500 7.328 C 43.650 7.324, 41.952 7.501, 43.728 7.722 M 85.250 7.689 C 86.213 7.941, 87.787 7.941, 88.750 7.689 C 89.713 7.438, 88.925 7.232, 87 7.232 C 85.075 7.232, 84.287 7.438, 85.250 7.689 M 107.762 7.707 C 109.006 7.946, 110.806 7.937, 111.762 7.687 C 112.718 7.437, 111.700 7.241, 109.500 7.252 C 107.300 7.263, 106.518 7.468, 107.762 7.707 M 14.250 8.716 C 15.763 8.945, 18.238 8.945, 19.750 8.716 C 21.263 8.487, 20.025 8.300, 17 8.300 C 13.975 8.300, 12.738 8.487, 14.250 8.716 M 158.250 8.689 C 159.213 8.941, 160.787 8.941, 161.750 8.689 C 162.713 8.438, 161.925 8.232, 160 8.232 C 158.075 8.232, 157.287 8.438, 158.250 8.689 M 110.113 12.479 C 89.973 17.054, 74.309 25.701, 60.880 39.657 C 43.991 57.208, 35.071 79.066, 35.022 103.020 C 34.995 115.758, 37.111 124.278, 43.416 136.834 C 57.274 164.426, 91.798 196.448, 118.631 206.598 C 127.244 209.856, 132.467 209.425, 142.585 204.620 C 170.572 191.329, 202.364 159.973, 214.512 133.680 C 219.992 121.820, 221.432 115.121, 221.322 102 C 220.981 61.320, 193.467 25.895, 153 14.036 C 143.150 11.149, 119.714 10.299, 110.113 12.479 M 246.741 34.615 C 247.030 37.302, 247.431 39.688, 247.633 39.917 C 248.430 40.822, 247.914 32.412, 247.092 31.115 C 246.556 30.268, 246.419 31.629, 246.741 34.615 M 246.300 58 C 246.300 61.025, 246.487 62.263, 246.716 60.750 C 246.945 59.237, 246.945 56.763, 246.716 55.250 C 246.487 53.737, 246.300 54.975, 246.300 58 M 9.343 63.500 C 9.346 67.900, 9.522 69.576, 9.733 67.224 C 9.945 64.872, 9.942 61.272, 9.727 59.224 C 9.512 57.176, 9.339 59.100, 9.343 63.500 M 423.429 68.468 C 422.540 69.825, 421.967 71.341, 422.156 71.836 C 422.345 72.331, 423.231 71.220, 424.124 69.368 C 426.034 65.405, 425.711 64.986, 423.429 68.468 M 440.500 67.854 C 441.062 68.667, 441.734 80.088, 442.034 93.901 L 442.569 118.500 442.784 94.361 C 442.979 72.581, 442.829 70.035, 441.250 68.314 C 440.288 67.264, 439.950 67.057, 440.500 67.854 M 455.429 68.468 C 454.540 69.825, 453.967 71.341, 454.156 71.836 C 454.345 72.331, 455.231 71.220, 456.124 69.368 C 458.034 65.405, 457.711 64.986, 455.429 68.468 M 542.486 78.750 C 549.628 86.037, 555.815 92, 556.236 92 C 556.656 92, 556.904 86.713, 556.786 80.250 L 556.572 68.500 556.252 79.951 L 555.931 91.402 542.715 78.451 L 529.500 65.500 542.486 78.750 M 570.437 95 C 570.437 109.575, 570.577 115.537, 570.747 108.250 C 570.918 100.962, 570.918 89.037, 570.747 81.750 C 570.577 74.462, 570.437 80.425, 570.437 95 M 367.431 95.500 C 367.432 108.700, 367.574 113.962, 367.747 107.193 C 367.921 100.424, 367.920 89.624, 367.746 83.193 C 367.572 76.762, 367.431 82.300, 367.431 95.500 M 60 74.752 C 48.139 80.677, 52.035 100.667, 68.788 119.841 C 86.605 140.232, 112.090 149.109, 120.183 137.743 C 123.024 133.753, 123.210 125.886, 120.641 118.313 C 114.872 101.308, 93.315 80.266, 76.268 75.001 C 68.311 72.543, 64.536 72.485, 60 74.752 M 178.977 75.345 C 166.048 79.910, 151.836 91.481, 143.080 104.572 C 131.308 122.172, 130.728 137.064, 141.636 141.621 C 146.117 143.494, 149.634 143.357, 157.217 141.015 C 173.127 136.101, 191.197 119.429, 199.318 102.172 C 203.590 93.093, 204.287 82.894, 200.926 78.629 C 196.256 72.701, 189.380 71.672, 178.977 75.345 M 513.431 96.500 C 513.432 109.700, 513.574 114.962, 513.747 108.193 C 513.921 101.424, 513.920 90.624, 513.746 84.193 C 513.572 77.762, 513.431 83.300, 513.431 96.500 M 353.313 78.919 C 354.500 81.087, 355.624 82.709, 355.810 82.524 C 356.294 82.039, 353.193 76.237, 352.084 75.552 C 351.572 75.236, 352.125 76.751, 353.313 78.919 M 247.232 82 C 247.232 83.925, 247.438 84.713, 247.689 83.750 C 247.941 82.787, 247.941 81.213, 247.689 80.250 C 247.438 79.287, 247.232 80.075, 247.232 82 M 474.402 80.395 C 474.108 81.162, 474.046 83.524, 474.265 85.645 C 474.646 89.332, 474.671 89.294, 474.832 84.782 L 475 80.063 486.750 79.747 L 498.500 79.430 486.719 79.215 C 477.416 79.045, 474.825 79.293, 474.402 80.395 M 337.343 92.500 C 337.346 96.900, 337.522 98.576, 337.733 96.224 C 337.945 93.872, 337.942 90.272, 337.727 88.224 C 337.512 86.176, 337.339 88.100, 337.343 92.500 M 302.385 102 C 302.385 108.875, 302.545 111.688, 302.740 108.250 C 302.936 104.813, 302.936 99.188, 302.740 95.750 C 302.545 92.313, 302.385 95.125, 302.385 102 M 358.328 100.500 C 358.333 104.350, 358.513 105.802, 358.730 103.728 C 358.946 101.653, 358.943 98.503, 358.722 96.728 C 358.501 94.952, 358.324 96.650, 358.328 100.500 M 498.136 96.193 C 498.059 97.729, 497.045 99.556, 495.777 100.443 C 494.555 101.299, 494.035 102, 494.623 102 C 496.642 102, 499.167 98.197, 498.717 95.832 C 498.308 93.689, 498.261 93.718, 498.136 96.193 M 528.212 110.750 L 528.425 122.500 528.748 111.609 L 529.071 100.718 531.785 103.105 C 534.318 105.333, 534.303 105.275, 531.563 102.246 C 529.948 100.461, 528.485 99, 528.313 99 C 528.141 99, 528.096 104.287, 528.212 110.750 M 474.402 107.243 L 474.500 111.500 485.500 111.556 L 496.500 111.612 485.806 111.273 L 475.112 110.933 474.708 106.959 L 474.304 102.985 474.402 107.243 M 247.320 111 C 247.320 114.575, 247.502 116.037, 247.723 114.250 C 247.945 112.463, 247.945 109.537, 247.723 107.750 C 247.502 105.963, 247.320 107.425, 247.320 111 M 544.500 115 C 547.766 118.300, 550.662 121, 550.937 121 C 551.212 121, 548.766 118.300, 545.500 115 C 542.234 111.700, 539.338 109, 539.063 109 C 538.788 109, 541.234 111.700, 544.500 115 M 392.250 110.735 C 394.863 110.941, 399.137 110.941, 401.750 110.735 C 404.363 110.529, 402.225 110.360, 397 110.360 C 391.775 110.360, 389.637 110.529, 392.250 110.735 M 329.692 112.741 L 336.884 113.085 337.274 116.793 L 337.664 120.500 337.832 116.250 L 338 112 330.250 112.199 L 322.500 112.397 329.692 112.741 M 412 118.066 C 412 119.752, 411.525 122.114, 410.945 123.316 C 409.926 125.426, 409.943 125.434, 411.445 123.559 C 412.857 121.796, 413.695 115, 412.500 115 C 412.225 115, 412 116.380, 412 118.066 M 13.320 134 C 13.320 137.575, 13.502 139.037, 13.723 137.250 C 13.945 135.463, 13.945 132.537, 13.723 130.750 C 13.502 128.963, 13.320 130.425, 13.320 134 M 14.044 141.316 C 14.020 141.764, 14.439 142.952, 14.975 143.954 C 15.777 145.453, 15.519 145.859, 13.520 146.241 C 11.871 146.556, 10.938 146.190, 10.617 145.103 C 9.943 142.820, 10.885 150.563, 12.003 156.500 C 12.521 159.250, 13.208 163.629, 13.531 166.231 C 13.853 168.832, 14.428 170.917, 14.808 170.862 C 18.037 170.400, 18.273 171.043, 17.695 178.750 C 17.224 185.043, 17.310 185.842, 18.154 183 C 18.759 180.962, 19.033 173.024, 18.810 164 C 18.474 150.436, 18.155 148, 16.257 144.500 C 15.064 142.300, 14.069 140.867, 14.044 141.316 M 107.473 167.030 C 103.752 171.141, 109.162 177.616, 118.401 180.111 C 124.144 181.662, 137.680 180.772, 142 178.559 C 149.657 174.637, 151.999 170.119, 148.171 166.655 C 145.697 164.415, 143.408 164.573, 139.659 167.243 C 137.283 168.935, 134.787 169.568, 129.504 169.821 C 123.502 170.108, 121.813 169.787, 117.697 167.578 C 111.905 164.469, 109.888 164.361, 107.473 167.030 M 10.378 178 C 10.378 184.325, 10.541 186.912, 10.739 183.750 C 10.937 180.588, 10.937 175.412, 10.739 172.250 C 10.541 169.088, 10.378 171.675, 10.378 178 M 118.250 211.743 C 122.513 211.931, 129.488 211.931, 133.750 211.743 C 138.012 211.556, 134.525 211.402, 126 211.402 C 117.475 211.402, 113.987 211.556, 118.250 211.743 M 20.250 213.689 C 21.212 213.941, 22.788 213.941, 23.750 213.689 C 24.712 213.438, 23.925 213.232, 22 213.232 C 20.075 213.232, 19.288 213.438, 20.250 213.689"
        stroke="none" fill="#cbd3db" fill-rule="evenodd" />
    <path
        d="M 61 74.706 C 54.750 76.991, 52.179 84.248, 54.463 93.162 C 58.990 110.833, 74.474 128.629, 93.848 138.428 C 99.925 141.502, 110.781 142.869, 115.250 141.124 C 119.139 139.604, 121.992 134.439, 121.996 128.907 C 122.014 106.822, 89.318 73.757, 67.780 74.079 C 64.876 74.122, 61.825 74.405, 61 74.706 M 182 74.647 C 163.977 80.521, 145.411 97.622, 137.293 115.825 C 134.003 123.202, 133.608 133.137, 136.438 137.341 C 138.797 140.848, 141.679 142, 148.090 142 C 168.312 142, 197.662 115.030, 202.016 92.446 C 204.340 80.392, 199.733 73.922, 188.938 74.079 C 185.947 74.122, 182.825 74.378, 182 74.647 M 109.115 166.632 C 106.099 168.744, 106.457 172.366, 109.975 175.325 C 114.390 179.041, 119.568 180.480, 128.505 180.477 C 135.270 180.475, 137.410 180.034, 142.325 177.629 C 148.787 174.468, 150.881 171.516, 149.068 168.126 C 147.578 165.343, 143.747 165.375, 139.158 168.211 C 134.188 171.283, 123.040 171.405, 118 168.443 C 112.621 165.282, 111.399 165.032, 109.115 166.632"
        stroke="none" fill="#354243" fill-rule="evenodd" />
</svg>