<svg width="807" height="918" viewBox="0 0 807 918" fill="none" xmlns="http://www.w3.org/2000/svg">
    <g opacity="0.1">
        <g style="mix-blend-mode:plus-darker">
            <path fill-rule="evenodd" clip-rule="evenodd"
                d="M439.038 181.989L337.784 45.8912C323.127 77.9581 308.917 134.554 329.346 175.41C319.431 176.427 309.955 178.36 302.625 181.75C255.862 203.376 204.552 259.25 179.333 375.5C172.031 409.161 158.888 425.281 143.267 444.44C128.532 462.512 111.593 483.288 95.2708 524.042C61.6459 608 152.392 691.958 218.563 615.702C255.764 572.83 288.282 555.132 315.584 540.273C354.878 518.886 383.366 503.381 399.458 427.167C407.114 462.717 404.051 546.616 330.554 597.809C257.057 649.001 241.745 756.837 243.276 788.833H661.292C661.292 485.075 626.394 222.629 439.038 181.989Z"
                fill="#7B61FF" />
        </g>
    </g>
</svg>
    